<svg width="100" height="100" fill="none" xmlns="http://www.w3.org/2000/svg"><path fill-rule="evenodd" clip-rule="evenodd" d="M100 50c0-27.612-22.388-50-50-50S0 22.388 0 50c0 24.954 18.282 45.64 42.188 49.396v-34.94H29.49V50h12.7V38.982c0-12.53 7.467-19.456 18.885-19.456 5.47 0 11.194.977 11.194.977v12.305h-6.307c-6.208 0-8.15 3.853-8.15 7.812V50h13.866l-2.215 14.456h-11.65v34.94C81.717 95.646 100 74.96 100 50z" fill="#fff"/><path fill-rule="evenodd" clip-rule="evenodd" d="M69.463 64.456L71.678 50H57.812v-9.38c0-3.952 1.934-7.812 8.15-7.812h6.307V20.503s-5.724-.977-11.194-.977c-11.42 0-18.886 6.919-18.886 19.456V50h-12.7v14.457h12.7v34.939c2.545.4 5.154.604 7.811.604 2.658 0 5.267-.211 7.812-.604v-34.94h11.651z" fill="#04090C"/></svg>