<svg width="100" height="100" fill="none" xmlns="http://www.w3.org/2000/svg"><g clip-path="url(#clip0_2_195)" fill="#fff"><path d="M50.044 24.523a25.568 25.568 0 00-5.139.521c-.83.171-1.647.383-2.446.632l-2.347.862-2.235 1.079L35.77 28.9l-1.97 1.474-1.819 1.65-1.653 1.817-1.475 1.968-1.285 2.107-1.08 2.232a25.276 25.276 0 00-2.016 9.923 25.613 25.613 0 00.521 5.134 25.08 25.08 0 001.496 4.79l1.08 2.232 1.284 2.106 1.475 1.968 1.653 1.817 1.818 1.651 1.97 1.474 2.11 1.283 2.234 1.079 2.347.862 2.446.631a25.408 25.408 0 005.139.522 25.673 25.673 0 005.139-.522l2.446-.631 2.347-.862 2.234-1.08 2.11-1.282 1.97-1.474 1.818-1.651L69.76 66.3l1.475-1.968 1.285-2.106 1.08-2.232.862-2.345c.25-.8.462-1.615.633-2.445l.389-2.53a25.523 25.523 0 00-1.022-10.182l-.863-2.345-1.08-2.232-1.284-2.107-1.475-1.968-1.653-1.816-1.819-1.652-1.97-1.474-2.109-1.283-2.234-1.078-2.347-.862-2.447-.632-2.532-.389a25.625 25.625 0 00-2.606-.132zm0 8.818c.581 0 1.155.03 1.72.086l1.666.252 1.61.41 1.54.56 1.465.702 1.378.834 1.288.96 1.187 1.077 1.078 1.186.961 1.287.835 1.38.702 1.463a16.757 16.757 0 01.97 3.148c.111.547.193 1.103.253 1.668l.086 1.719a17.128 17.128 0 01-.338 3.387 16.96 16.96 0 01-.41 1.608l-.56 1.54-.703 1.464-.835 1.379-.961 1.287-1.078 1.186L60.71 63l-1.288.96-1.378.834-1.465.702-1.54.56-1.61.41-1.666.251a17.224 17.224 0 01-3.441 0l-1.666-.251a16.753 16.753 0 01-1.61-.41l-1.54-.56-1.466-.702-1.377-.834-1.288-.96-1.187-1.077-1.078-1.186-.961-1.287-.836-1.38-.702-1.463-.56-1.54-.41-1.608-.252-1.668a17.171 17.171 0 01.252-5.106c.11-.542.247-1.079.41-1.608l.56-1.54.702-1.463.836-1.38.96-1.286 1.079-1.186 1.187-1.077 1.288-.96 1.378-.835 1.465-.702a16.656 16.656 0 011.54-.56l1.61-.41a16.968 16.968 0 013.387-.337zm26.61-16.086a6.08 6.08 0 00-2.92.751 6.084 6.084 0 00-2.507 2.599 6.139 6.139 0 00-.632 3.392 6.15 6.15 0 002.77 4.547 6.05 6.05 0 003.29.972 6.054 6.054 0 004.369-1.86 6.124 6.124 0 001.632-3.228 6.18 6.18 0 00-.392-3.429 6.145 6.145 0 00-2.32-2.771 6.075 6.075 0 00-3.29-.972z"/><path d="M45.194.09c-2.78-.004-5.263.007-7.493.039l-5.978.16a98.03 98.03 0 00-4.74.307c-.702.065-1.364.137-1.992.217a43.01 43.01 0 00-1.788.263c-.565.096-1.102.2-1.616.313a27.4 27.4 0 00-1.48.365 26.113 26.113 0 00-2.692.902c-.86.34-1.7.723-2.564 1.152-.665.33-1.28.664-1.863 1.018A19.88 19.88 0 0011.31 5.96c-.558.42-1.095.868-1.61 1.34-.54.49-1.09 1.03-1.662 1.633a33.837 33.837 0 00-1.897 2.147c-.277.345-.537.685-.781 1.028a19.887 19.887 0 00-1.883 3.24 30.916 30.916 0 00-1.044 2.567 29.425 29.425 0 00-1.22 4.429c-.161.824-.301 1.71-.425 2.69a65.322 65.322 0 00-.318 3.233C.38 29.454.306 30.76.245 32.215l-.144 4.834-.078 5.894-.022 7.124.066 10.36.205 7.848.157 3.066.198 2.54c.063.686.142 1.369.237 2.05.087.605.18 1.134.28 1.592.202.931.442 1.854.718 2.767.265.873.567 1.735.907 2.582.334.83.7 1.63 1.096 2.4.398.77.827 1.51 1.288 2.22a24.413 24.413 0 005.032 5.62 26.382 26.382 0 002.072 1.535c.664.444 1.321.85 1.983 1.223a23.986 23.986 0 004.14 1.854c.736.25 1.501.471 2.31.668.81.197 1.666.37 2.573.52.906.15 1.876.28 2.911.39 1.035.112 2.14.204 3.327.28 1.187.078 2.455.139 3.819.188 2.105.077 5.293.121 8.969.138l11.9-.024 11.268-.158 4.285-.12 2.79-.144c.6-.049 1.186-.106 1.752-.174a41.066 41.066 0 001.667-.232 35.489 35.489 0 001.596-.295 32.543 32.543 0 003.035-.788 30.79 30.79 0 002.914-1.079 33.98 33.98 0 001.444-.657 36.812 36.812 0 001.862-.945c.492-.27.967-.572 1.42-.904.447-.33.892-.705 1.405-1.177a63.087 63.087 0 001.812-1.76 56.594 56.594 0 001.625-1.68c.46-.5.847-.95 1.187-1.383.323-.41.625-.839.903-1.282.272-.432.521-.881.776-1.38.383-.75.724-1.444 1.03-2.113.296-.646.567-1.303.811-1.97.241-.662.45-1.335.625-2.017.18-.701.337-1.442.471-2.254.135-.813.248-1.697.347-2.684.099-.988.183-2.079.256-3.305l.196-4.115.168-5.119.12-5.702.046-5.963-.107-11.71-.144-5.246-.195-4.504-.243-3.51c-.089-.978-.184-1.747-.286-2.268a38.265 38.265 0 00-.375-1.716 35.26 35.26 0 00-.444-1.65 32.598 32.598 0 00-1.088-3.105 26.17 26.17 0 00-.648-1.453 26.83 26.83 0 00-1.5-2.71 24.425 24.425 0 00-2.759-3.57 23.606 23.606 0 00-3.368-2.975 25.036 25.036 0 00-2.584-1.652 27.462 27.462 0 00-1.393-.727 45.427 45.427 0 00-2.216-1.017 22.707 22.707 0 00-4.45-1.385 32.89 32.89 0 00-2.77-.43 64.145 64.145 0 00-3.488-.299c-1.313-.08-2.79-.144-4.476-.195l-5.73-.128-7.252-.086-9.286-.057h-.004zm4.823 8.811l13.393.076 5.052.098c1.391.039 2.453.085 3.075.137.81.069 1.583.154 2.321.257.709.098 1.414.22 2.114.365.673.14 1.315.3 1.93.481.613.181 1.2.383 1.763.607.563.224 1.1.47 1.619.74a16.484 16.484 0 012.89 1.915 18.603 18.603 0 012.557 2.565 14.87 14.87 0 011.933 3.073c.266.564.504 1.16.718 1.793.214.634.405 1.307.574 2.026.176.763.325 1.531.444 2.305.128.82.237 1.695.33 2.631.093.937.17 1.935.233 3.004.051.857.095 1.987.133 3.323l.094 4.554.071 11.155-.081 11.144-.098 4.541-.135 3.303a93.27 93.27 0 01-.31 3.978c-.06.565-.124 1.089-.195 1.58a26.03 26.03 0 01-.236 1.386c-.084.42-.18.836-.29 1.25a18.24 18.24 0 01-.356 1.17 19.72 19.72 0 01-.432 1.153c-.164.4-.338.798-.52 1.19-.163.351-.334.693-.514 1.025a16.438 16.438 0 01-1.194 1.879 15.188 15.188 0 01-1.42 1.657 15.334 15.334 0 01-2.573 2.08c-.316.204-.642.4-.979.588a18.664 18.664 0 01-2.146 1.02c-.385.156-.775.3-1.17.435-.8.272-1.645.512-2.534.719a34.01 34.01 0 01-2.804.525c-.362.052-1.194.102-2.386.148l-4.541.126-12.875.168-13.477.02-5.292-.056-3.437-.107-2.534-.178a59.591 59.591 0 01-2.204-.223 37.551 37.551 0 01-1.924-.282 25.851 25.851 0 01-1.697-.353 19.56 19.56 0 01-1.518-.435 17.07 17.07 0 01-2.708-1.168 20.497 20.497 0 01-2.234-1.397 16.168 16.168 0 01-1.691-1.392 14.904 14.904 0 01-1.442-1.573 14.538 14.538 0 01-1.207-1.788 16.158 16.158 0 01-.522-.983 17.81 17.81 0 01-.469-1.05 20.446 20.446 0 01-.418-1.12 24.84 24.84 0 01-.694-2.465c-.2-.874-.372-1.803-.517-2.793-.144-.99-.261-2.04-.354-3.155-.068-.822-.123-2.101-.165-3.716l-.087-5.743.032-14.639.252-13.988.193-4.928.109-1.63a9.16 9.16 0 01.116-.95 47.64 47.64 0 01.403-1.784 29.24 29.24 0 01.428-1.557c.15-.487.307-.942.475-1.374.162-.418.343-.828.542-1.23a13.512 13.512 0 011.366-2.199c.267-.351.554-.698.866-1.05a25.175 25.175 0 012.347-2.305c.434-.37.888-.717 1.358-1.04.462-.321.936-.606 1.43-.868a15.16 15.16 0 011.547-.712c.54-.213 1.107-.404 1.707-.577.631-.177 1.27-.328 1.913-.452a34.922 34.922 0 012.162-.35c.768-.1 1.584-.188 2.457-.263.608-.053 1.657-.1 3.038-.139l5.026-.1L50.02 8.9l-.003.002z"/></g><defs><clipPath id="clip0_2_195"><path fill="#fff" d="M0 0h100v100H0z"/></clipPath></defs></svg>