<svg width="122" height="100" fill="none" xmlns="http://www.w3.org/2000/svg"><g clip-path="url(#clip0_2_196)"><path d="M108.799 25.142c.074 1.064.074 2.128.074 3.201 0 32.71-24.902 70.436-70.437 70.436v-.02A70.082 70.082 0 01.49 87.663c1.956.235 3.922.353 5.892.358a49.71 49.71 0 0030.745-10.618A24.787 24.787 0 0114 60.211c3.71.715 7.534.568 11.176-.427C13.627 57.451 5.32 47.304 5.32 35.52v-.314a24.599 24.599 0 0011.235 3.098C5.676 31.034 2.324 16.564 8.892 5.25a70.262 70.262 0 0051.02 25.863A24.77 24.77 0 0167.073 7.46c9.971-9.373 25.653-8.892 35.025 1.073a49.68 49.68 0 0015.721-6.01 24.847 24.847 0 01-10.883 13.692 49.235 49.235 0 0014.216-3.897 50.302 50.302 0 01-12.353 12.823z" fill="#fff"/></g><defs><clipPath id="clip0_2_196"><path fill="#fff" d="M0 0h121.569v100H0z"/></clipPath></defs></svg>